<svg xmlns="http://www.w3.org/2000/svg" viewBox="0 0 800 1000" role="img" aria-labelledby="title desc"><title id="title">Avatar feminino temporário</title><desc id="desc">Ilustração editorial de uma mulher adulta em ambiente sereno.</desc><defs><linearGradient id="bg" x1="0" y1="0" x2="1" y2="1"><stop stop-color="#ead9c4"/><stop offset="1" stop-color="#c6d1cd"/></linearGradient><linearGradient id="dress"><stop stop-color="#c97866"/><stop offset="1" stop-color="#9e5c50"/></linearGradient></defs><rect width="800" height="1000" fill="url(#bg)"/><circle cx="650" cy="180" r="140" fill="#f7f1e7" opacity=".5"/><path d="M0 820c160-110 270-90 390-25 135 73 265 82 410 0v205H0z" fill="#9aaea8" opacity=".8"/><path d="M230 970c5-250 80-350 190-350s210 120 220 350" fill="url(#dress)"/><ellipse cx="422" cy="455" rx="130" ry="165" fill="#d89d78"/><path d="M290 475c-30-170 45-285 150-285 126 0 188 124 135 308-20-98-42-150-91-203-53 67-106 105-194 180z" fill="#4c362f"/><path d="M310 390c-15 120 9 238 70 278-88-20-142-88-142-189 0-96 38-193 107-240" fill="#4c362f"/><path d="M540 330c60 98 43 258-38 332 83-26 135-99 135-202 0-97-42-189-119-236" fill="#4c362f"/><ellipse cx="376" cy="464" rx="9" ry="6" fill="#26313b"/><ellipse cx="473" cy="464" rx="9" ry="6" fill="#26313b"/><path d="M393 535c24 20 48 20 70 0" fill="none" stroke="#8e4d45" stroke-width="6" stroke-linecap="round"/><path d="M417 473c-5 26-12 45-6 57 8 5 18 5 27 0" fill="none" stroke="#b8795e" stroke-width="4" stroke-linecap="round"/><path d="M331 431c24-16 47-17 69-6M447 426c23-10 47-8 68 7" fill="none" stroke="#4c362f" stroke-width="7" stroke-linecap="round"/><rect x="85" y="720" width="230" height="150" rx="18" fill="#fffdf8" opacity=".9"/><path d="M120 765h150M120 800h105M120 835h125" stroke="#c5a15a" stroke-width="10" stroke-linecap="round"/></svg>
